<?xml version="1.0" encoding="utf-8"?>
<!-- Generator: Adobe Illustrator 25.3.1, SVG Export Plug-In . SVG Version: 6.00 Build 0)  -->
<svg version="1.1" id="Layer_1" xmlns="http://www.w3.org/2000/svg" xmlns:xlink="http://www.w3.org/1999/xlink" x="0px" y="0px"
	 viewBox="0 0 698 747" style="enable-background:new 0 0 698 747;" xml:space="preserve">
<style type="text/css">
	.st0{fill:#FF282E;}
	.st1{fill:#2046D1;}
	.st2{fill:#ED6D5B;}
	.st3{fill:#212020;}
</style>
<g>
	<polygon class="st0" points="48.6,34.5 48.6,115.3 31.6,115.4 31.6,138.9 48.6,138.9 48.6,370.9 68.2,370.9 68.2,485.7 46,485.7 
		46,712.1 237.8,518.2 237.8,482.6 248.7,482.6 248.7,370.9 237.3,370.9 237.3,222 453.1,222 526.8,148.2 507.6,148.2 547.9,110.8 
		565.7,110.8 642,34.5 	"/>
	<polygon class="st1" points="85.1,30.5 85.1,111.3 68.1,111.4 68.1,134.9 85.1,134.9 85.1,366.9 104.7,366.9 104.7,481.7 
		82.5,481.7 82.5,708.1 274.3,514.2 274.3,478.6 285.2,478.6 285.2,366.9 273.8,366.9 273.8,218 489.6,218 563.3,144.2 544.1,144.2 
		584.4,106.8 602.2,106.8 678.5,30.5 	"/>
	<polygon class="st1" points="351.4,302.3 351.4,366.9 372.6,366.9 372.6,477.1 356.5,477.1 356.5,546.2 421.3,481.4 436.5,481.4 
		550.4,368.2 532.6,368.2 598.7,302.3 	"/>
	<polygon class="st2" points="65.4,32.5 65.4,113.3 48.4,113.4 48.4,136.9 65.4,136.9 65.4,368.9 85,368.9 85,483.7 62.8,483.7 
		62.8,710.1 254.7,516.2 254.7,480.6 265.5,480.6 265.5,368.9 254.2,368.9 254.2,220 469.9,220 543.7,146.2 524.5,146.2 
		564.7,108.8 582.5,108.8 658.8,32.5 	"/>
	<polygon class="st0" points="316.7,305.2 316.7,369.7 337.9,369.7 337.9,480 321.8,480 321.8,549 386.6,484.3 401.8,484.3 
		515.7,371 497.9,371 564,305.2 	"/>
	<polygon class="st3" points="332.7,303.2 332.7,367.7 353.9,367.7 353.9,478 337.8,478 337.8,547 402.6,482.3 417.8,482.3 
		531.7,369 513.9,369 580,303.2 	"/>
</g>
</svg>
